<?xml version="1.0" encoding="utf-8"?>
<!-- Generator: Adobe Illustrator 21.0.0, SVG Export Plug-In . SVG Version: 6.00 Build 0)  -->
<svg version="1.1" xmlns="http://www.w3.org/2000/svg" xmlns:xlink="http://www.w3.org/1999/xlink" x="0px" y="0px"
	 viewBox="0 0 1303.9394531 1303.9394531" style="enable-background:new 0 0 1303.9394531 1303.9394531;" xml:space="preserve">
<style type="text/css">
	.st0{display:none;}
	.st1{display:inline;}
	.st2{fill-rule:evenodd;clip-rule:evenodd;}
	.st3{fill:#009CDE;}
	.st4{fill:#878787;}
</style>
<g id="Ebene_3">
</g>
<g id="Ebene_1" class="st0">
	<g class="st1">
		<path d="M223.223587,803.3477173l-6.996994-23.3243408c-14.2016907,5.9395142-24.3755035,8.4795532-32.4340973,8.4795532
			c-15.6875,0-20.5547028-7.6201172-20.5547028-15.0439453v-66.7821655c0-11.2217407,8.6894073-18.8702393,21.8252106-18.8702393
			c7.0014954,0,18.019989,3.4003906,26.2875977,8.7012329l9.5438995-23.3223267
			c-14.6307983-7.8416748-27.1390991-9.7352905-39.858902-9.7352905c-23.950592,0-45.1430054,13.7617188-45.1430054,40.6865234
			v70.5859985c0,27.9784546,22.4629059,37.3065796,45.1430054,37.3065796
			C188.8827972,812.0292969,206.4774933,810.3378906,223.223587,803.3477173L223.223587,803.3477173z"/>
		<polygon points="325.5272827,705.8358765 297.3378906,705.8358765 276.5687866,784.0518188 276.5687866,761.1602173 
			258.9730835,705.8358765 228.4462891,705.8358765 263.199707,809.9121094 266.5976868,809.9121094 255.1586914,848.0673828 
			280.8085938,848.0673828 325.5272827,705.8358765 		"/>
		<path class="st2" d="M425.6937866,735.3018188c0.2115173-28.4034424-24.8006897-32.2276001-38.1528015-32.2276001
			c-4.0292969,0-11.6659851,0.8496094-19.0776062,3.8241577v-27.2567749v-24.8936157h-27.1322937v152.6260376
			c19.4974976,4.0263672,30.3041992,4.6552734,42.6044006,4.6552734c22.8920898,0,41.3326111-9.1063843,41.5455017-34.3408203
			L425.6937866,735.3018188L425.6937866,735.3018188z M398.1362,737.8397827v40.069397
			c0,8.9033203-12.719696,14.4208984-29.672821,8.2549438v-54.0606079
			C378.2113953,725.7606812,398.1362,721.5098267,398.1362,737.8397827L398.1362,737.8397827z"/>
		<path class="st2" d="M525.9003906,741.2393188c0-19.9317017-7.199707-37.9620361-40.480011-37.9620361
			c-24.1615906,0-39.6416016,12.7276001-39.6416016,37.1016235v37.3095703
			c0,27.1455078,19.7192078,34.3408203,42.3994141,34.3408203c9.9609985,0,23.1059875-2.1171875,36.4516907-8.0537109
			l-6.7783203-23.0927734c-9.7509766,5.0800781-45.1577759,17.3837891-45.1577759-8.2734375v-7.2149048h53.206604V741.2393188
			L525.9003906,741.2393188z M499.1981812,737.6171875v4.046936h-26.5043945l-0.2124023-4.656311
			c-0.4169006-7.2391968,4.4605103-11.6738281,13.9971008-11.6738281S499.1981812,730.6464844,499.1981812,737.6171875
			L499.1981812,737.6171875z"/>
		<path d="M606.4140625,707.1016235c-15.4790039-5.9385376-28.1977539-4.8770142-37.53125,4.4501953l-4.4526367-5.9375h-15.0405884
			l-0.2177124,104.0946655h27.1328125v-76.5253906c4.4511719-4.875,13.1434937-5.5332031,24.378418-0.203064
			L606.4140625,707.1016235L606.4140625,707.1016235z"/>
		<polygon points="719.3935547,665.5645142 632.277771,665.5645142 632.277771,809.7089844 659.1933594,809.7089844 
			659.1933594,746.5233765 706.2587891,746.5233765 706.2587891,723.218811 659.1933594,723.218811 659.1933594,693.3026733 
			653.8955078,689.0917969 715.7948608,689.0917969 719.3935547,665.5645142 		"/>
		<path class="st2" d="M809.4345703,776.8358765v-38.7928467c0-25.4375-20.1494141-34.7657471-43.0419922-34.7657471
			c-23.1035156,0-42.8164063,9.5606079-42.8164063,34.9863892v38.5722046c0,25.4405518,19.7128906,35.1934204,42.8164063,35.1934204
			C789.5009766,812.0292969,809.4345703,802.2764282,809.4345703,776.8358765L809.4345703,776.8358765z M782.0897827,775.5703125
			c0,7.4296875-6.7871094,12.7128906-15.6972046,12.7128906c-8.8945923,0-15.4716797-5.2832031-15.4716797-12.7128906v-34.968689
			c0-7.4180298,6.5770874-12.9512329,15.4716797-12.9512329c8.9100952,0,15.6972046,5.5332031,15.6972046,12.9512329V775.5703125
			L782.0897827,775.5703125z"/>
		<path d="M887.7782593,707.1016235c-15.4735718-5.9385376-28.1991577-4.8770142-37.524353,4.4501953l-4.4492188-5.9375h-15.0585938
			l-0.2022095,104.0946655h27.1328735v-76.5253906c4.4502563-4.875,13.1445313-5.5332031,24.3759155-0.203064
			L887.7782593,707.1016235L887.7782593,707.1016235z"/>
		<path d="M986.9160156,809.9121094V705.8358765h-27.1289673v79.2774048
			c-12.9306641,5.9277344-27.9784546,6.993103-27.9784546-6.5664063l0.2147827-72.9325562l-27.3447266,0.2215576v73.1348267
			c0,25.8632813,16.7383423,33.0585938,35.397522,33.0585938c6.1425781,0,16.7460938-1.2675781,25.0106812-5.9395142
			l6.3555298,3.8223267H986.9160156L986.9160156,809.9121094z"/>
		<path d="M1146.0332031,737.2128906c0-26.5078125-16.1201172-34.1386719-34.7578125-34.1386719
			c-10.8164063,0-22.0478516,5.078064-27.5625,10.1875c-6.3515625-7.4258423-16.3173828-10.1875-27.1289063-10.1875
			c-6.3623047,0-17.1689453,2.7616577-23.0966797,7.2149048l-6.1513672-4.4532471h-18.234314v104.0762329h27.1356812v-75.671936
			c4.0263672-3.593689,9.7363281-6.5897827,16.7392578-6.5897827c5.0986328,0,11.0263672,1.7139282,11.0263672,11.0410156
			l-0.2021484,71.2207031h27.1269531v-75.8945313c4.015625-3.5946655,9.9667969-6.3671875,16.9482422-6.3671875
			c4.8857422,0,10.8076172,1.7139282,10.8076172,11.0410156l0.2226563,71.2207031h27.1269531V737.2128906L1146.0332031,737.2128906z
			"/>
		<path class="st3" d="M393.7025757,281.8241882c0,0-16.1420898,18.0474243-29.7367859,45.5630188
			c0,0-17.3374023,4.4248047-33.2567749,4.4248047c-15.9229126,0-14.1001282-5.3486023-12.4927368-6.9458008
			C351.6713867,291.8999023,393.7025757,281.8241882,393.7025757,281.8241882L393.7025757,281.8241882z"/>
		<path class="st3" d="M364.3710938,327.5718079c0,0-3.1625977,5.320282-5.5464172,11.7035828
			c0,0,16.7046204-2.6698914,37.8291016-8.905304c26.0566101-7.7118835,72.0537109-26.157196,87.0957031-49.8680725
			c0.1156921-0.1470032-4.7568054-1.4961243-10.945282-2.706604c-0.1104126-0.0176086-7.9945984,10.5209961-31.4229126,23.0922852
			C424.6728821,309.8559875,400.1420898,319.9892883,364.3710938,327.5718079L364.3710938,327.5718079z"/>
		<path class="st3" d="M358.2207031,339.7827148c0,0-1.1782227,2.5038757-2.9199219,7.2860718
			c-2.3549805,6.4205017-6.1493835,17.9952087-8.6636047,31.1114197c-0.0087891,0.0718079-7.0336914,1.2832031-19.7294922,1.2832031
			c-19.894989,0-26.530304-3.085022-26.530304-3.085022s1.2823181-0.9789734,5.2227173-4.1293945
			c0.0536804-0.0639038-1.7041016,1.0346985-3.3315125,2.1343079c-1.2885742,0.8486023-2.5019836,1.7549133-2.5019836,1.7549133
			s-10.2026062-2.6133118-10.2026062-12.3858032c0-4.5454102,0.7583008-4.3227234,2.1254883-6.7338257
			c1.3540039-2.4306946,6.4145203-10.0224915,15.5732117-20.5600891c0.0649109-0.074707,1.5830078,5.5878906,23.9589844,5.5878906
			C346.1069031,342.0463867,358.2207031,339.7827148,358.2207031,339.7827148L358.2207031,339.7827148z"/>
		<path class="st3" d="M346.6371765,378.530304c0,0-1.1776733,5.4385071-1.8842773,10.6488953
			c0,0.0380859,37.8096008-3.0469055,85.3266907-20.0703125c66.9931946-23.9872742,103.0023804-53.4511719,103.0023804-69.1620789
			c0-0.2979126-3.3295898-2.190918-9.2591553-4.6197205c-0.0567017-0.0179749,1.4491577,14.5289001-39.6993408,38.4703064
			C460.8013,347.3666992,409.3583984,370.6875,346.6371765,378.530304L346.6371765,378.530304z"/>
		<path class="st3" d="M344.457489,389.5498047c0,0-3.8143921,22.5820007-2.4003906,43.9385071
			c0,0.0717773-11.6434937,1.0145874-21.1255188,1.0145874c-7.6971741,0-23.9217834-0.6464844-35.6333008-5.5049133
			c-0.1673889-0.083374,0.3041992,0.166626,0.0918274,0.0748291c-0.0918274-0.0367126,4.9604797-5.4405212,11.1484985-10.6499023
			c7.3573914-6.1983032,16.0575867-12.3589172,16.0575867-12.3589172s-8.839386,5.7173157-16.5884094,11.5923157
			c-6.7523804,5.1445007-12.5297852,10.5374756-12.6688843,10.4637756
			c-6.7608032-3.2426758-11.5855103-8.1088867-11.5855103-15.3773804c0-12.914093,18.5401001-28.4208984,18.5401001-28.4208984
			s6.9521179,6.4559937,33.0545959,6.4559937C335.6459961,390.7778015,344.457489,389.5498047,344.457489,389.5498047
			L344.457489,389.5498047z"/>
		<path class="st3" d="M289.4911804,383.6929016c0,0-6.1981812-3.5469055-6.1981812-12.9121094
			c0,0-9.4439087,17.3838196-13.6006165,33.4725952C269.6923828,404.2533875,274.2973938,395.8569031,289.4911804,383.6929016
			L289.4911804,383.6929016z"/>
		<path class="st3" d="M274.6011047,437.3579102c0,0-8.8388977-5.0620117-10.1255188-11.3330078
			c0,0-2.6484985,15.0448914-2.6484985,33.4823914C261.8270874,459.6625977,263.3422852,449.6796875,274.6011047,437.3579102
			L274.6011047,437.3579102z"/>
		<path class="st3" d="M277.3179016,438.8822937c9.0560913,3.5088196,16.5980835,6.5668945,43.2456055,6.5668945
			c14.1361694,0,22.1395874-1.0541992,22.1395874-1.0541992s1.9867859,23.3511047,8.1651001,40.8804016
			c0.0371094,0.1118164-9.074707,0.6943054-19.0454102,0.6943054c-7.5976868,0-21.8256836-0.3041992-34.6705017-3.4912109
			c-0.1703796-0.0370789,6.5870056-7.0297852,14.4698181-13.4672852
			c7.4032898-6.0678101,16.3988953-11.6108093,16.3988953-11.6108093s-9.1308899,4.7671204-17.1791992,10.7881165
			c-13.8052063,10.4115906-16.2807922,13.4203796-16.3814087,13.3847046
			c-13.4580078-3.6674194-24.0892944-10.2636108-24.0892944-23.7294006
			C270.3710938,448.1005859,277.1416016,438.8085938,277.3179016,438.8822937L277.3179016,438.8822937z"/>
		<path class="st3" d="M342.4066772,433.7543945c0,0,0.1480103,4.6108093,0.5371094,10.2070007
			c0.0079041,0.0371094,21.7416992-1.4603882,55.4404907-9.4584961
			c38.3178101-9.0693054,65.2944031-19.3315125,97.1089172-34.469696
			c64.1615906-30.5180969,79.7450867-60.0473938,79.7450867-65.1177063c0-0.5170898-2.4672852-3.4833984-8.0874023-8.2485046
			c-0.2774048-0.2226868-4.2587891,28.6421204-72.8818665,62.8633118
			C446.9740906,413.1283875,387.3471985,430.2738953,342.4066772,433.7543945L342.4066772,433.7543945z"/>
		<path class="st3" d="M351.1723938,485.6654968c0,0,1.8104858,6.2525024,3.773407,11.3423157
			c0.0175781,0.0166016,27.3856812-2.1348267,66.4711914-11.8061218
			c31.7412109-7.839386,67.5278015-20.2915039,99.1776733-35.7817993
			c41.5361938-20.3197937,75.9693604-45.655304,84.8544922-70.4736023
			c0.0103149-0.1109009-2.1244507-4.5629883-6.1508789-12.1562805c-0.008667-0.0263062-1.2412109,3.039093-4.203064,8.4223938
			c-3.4682007,6.3285828-17.6499023,37.2714844-95.9814148,71.4657898
			C451.9520874,467.2661133,398.1908875,482.3857117,351.1723938,485.6654968L351.1723938,485.6654968z"/>
		<path class="st3" d="M263.0332031,474.9325867c0,0,1.8193054,24.7998047,9.6758118,42.6255188
			c0,0,0.2216797-11.4613953,12.2509766-25.3999023C285.2055969,491.8812866,267.8783875,487.6312866,263.0332031,474.9325867
			L263.0332031,474.9325867z"/>
		<path class="st3" d="M373.851593,537.0200195c0,0-11.3365173-17.3647461-18.8461914-39.5141296
			c-0.0596008-0.1293945-15.9283142,0.9052124-24.3882141,0.9052124c-8.4707031,0-27.1972961-0.3139038-41.6109009-4.9501953
			c-0.0926819-0.0375977-6.6795959,8.589386-6.6795959,17.5478821c0,14.6968384,14.7381897,22.1318359,33.3081055,25.4204102
			c0.2176819,0.0375977,5.0380859-5.4033203,10.9682007-10.6309204
			c6.8916016-6.1244507,14.0679016-11.1307983,14.0679016-11.1307983s-7.112793,5.7626953-13.0878906,11.6655273
			c-5.1631165,5.1361694-9.3208008,10.5385742-9.0801086,10.5761719c8.1645813,1.2192383,16.9219055,1.7173462,25.4151001,1.7173462
			C361.5546875,538.6265259,373.945282,537.1309204,373.851593,537.0200195L373.851593,537.0200195z"/>
		<path class="st3" d="M381.4125977,548.0205078c0,0-3.190918-4.414978-7.117218-10.8721313
			c-0.0166016-0.0360718,29.4795227-2.4657593,64.7075195-12.1727905
			c73.8725891-20.4032898,114.2051086-43.550293,141.1158142-62.1064758
			c24.8690796-17.1245117,38.6322632-37.398407,38.6322632-41.9613953c0,0,1.4868164,4.3031921,3.6434937,17.8617859
			c0,0.0205078-6.0365601,12.1206055-33.3251953,32.0434875c-26.2977905,19.2295227-76.3963623,45.8032227-144.3119812,64.387207
			C423.9790039,540.8817749,406.9560852,543.753418,381.4125977,548.0205078L381.4125977,548.0205078z"/>
		<path class="st3" d="M410.6283875,582.3623047c0,0-18.3724976-17.347229-29.4287109-33.9536133
			c-0.059082-0.0556641-21.6488953,2.6132813-39.7025757,2.6132813c-21.2769165,0-29.7368164-2.2992554-29.7368164-2.2992554
			s-1.5112915,3.7127686-1.5112915,8.3504639c0,15.6182251,16.4281921,28.1148071,61.3783875,28.1148071
			c2.8164063,0,5.5645142-0.046875,8.2149048-0.1381836c0.1473999,0,2.1893921-2.0410156,4.5630188-3.8892212
			c2.6376953-2.0501709,5.6420898-3.9422607,5.6420898-3.9422607s-2.6542969,2.3363647-4.9732056,4.4779663
			c-1.8179016,1.6810913-3.4487,3.2988281-3.3110046,3.2988281
			C398.4584961,584.3485718,410.6283875,582.3623047,410.6283875,582.3623047L410.6283875,582.3623047z"/>
		<path class="st3" d="M306.6582031,547.7338867c0,0-17.6708984-3.0484009-26.4263-11.6005859
			c-0.0927124-0.0933228,9.756897,20.015625,21.2304993,33.5009766
			C301.4624023,569.6342773,298.9770813,559.2802734,306.6582031,547.7338867L306.6582031,547.7338867z"/>
		<path class="st3" d="M411.1503906,582.4545898c0,0,5.1224976,4.4891968,10.5839844,8.9404297
			c0.0093079,0.0097656,21.1855164-3.1600952,50.792511-11.6459961
			c43.2445984-12.4335938,108.007782-37.9995117,144.1078796-74.5854187
			c0.1489258-0.1490173,4.7426147-14.8154907,4.7426147-22.6679993c0,0-12.1259155,23.4145813-57.1317749,48.5302734
			C525.2124023,552.8051758,472.6552734,573.5874023,411.1503906,582.4545898L411.1503906,582.4545898z"/>
		<path class="st3" d="M368.2886047,596.4750977c-36.9844055,0-49.7666016-8.6641235-49.7666016-8.6641235
			s16.3246765,17.6421509,45.6557007,31.9507446c0,0-2.6230164-3.5292969-2.6230164-7.8701172
			C361.5546875,603.7363281,368.2886047,596.4750977,368.2886047,596.4750977L368.2886047,596.4750977z"/>
		<path class="st3" d="M373.945282,596.3828125c6.8529968,0,27.6040039-0.4238281,47.8735046-4.7285156
			c0.0458984-0.0186157,10.487793,10.3535156,37.2955017,24.6699219c0.075592,0.0390625-23.792511,5.4589844-46.4721985,5.4589844
			c-12.0952148,0-40.9032898-1.4315796-40.9032898-18.2598267C371.7388,599.6162109,373.7426758,596.3828125,373.945282,596.3828125
			L373.945282,596.3828125z"/>
		<path class="st3" d="M443.0858765,637.6063843c-27.5121765,0-44.7372742-5.4500732-44.7372742-5.4500732
			s28.2075806,3.296814,75.9789734-8.6661377c0.0821228-0.015564,16.6397095,6.9571533,19.8589172,6.9571533
			C494.4726868,630.4473267,477.5561829,637.6063843,443.0858765,637.6063843L443.0858765,637.6063843z"/>
		<path class="st3" d="M459.7934875,616.4354858c0,0,6.5400085,3.1758423,14.737793,6.7325439
			c0.0742188,0.0184937,55.5257874-13.3174438,94.2586975-37.0459595
			c0.5855103-0.3510742,21.2437134-22.2241821,28.19104-35.7099609c0.0350952-0.0454102-7.5606079,12.8023071-33.6255493,27.6088867
			c-15.9614868,9.0698242-36.2592773,18.6030273-55.7284546,25.5200195
			C488.3534851,610.4121094,469.7645874,614.1367188,459.7934875,616.4354858L459.7934875,616.4354858z"/>
		<polygon points="163.8744965,876.9628906 157.391098,877.0352173 157.391098,894.9375 142.4311981,894.9375 
			142.4311981,877.0352173 135.9472961,877.0352173 135.9472961,920.6143188 142.3661957,920.6143188 142.4311981,900.6522827 
			157.4589996,900.6522827 157.5233917,920.6143188 163.8744965,920.6143188 163.8744965,876.9628906 		"/>
		<polygon points="191.5751953,920.6143188 191.5751953,914.765625 185.2836914,914.765625 185.2836914,882.6151733 
			191.5751953,882.6151733 191.5751953,876.8496094 172.2597961,876.8496094 172.2597961,882.6151733 178.6806946,882.6151733 
			178.6806946,914.765625 172.3262024,914.765625 172.3262024,920.6143188 191.5751953,920.6143188 		"/>
		<path d="M225.3110046,920.6143188v-23.3047485h-12.012207v5.9765015h5.5932922v11.2958984
			c-2.1987,0.6270142-4.0180969,0.8858032-5.2144012,0.8858032c-4.8480988,0-6.8535004-1.8564453-6.8535004-4.875v-22.2060547
			c0-4.2324219,3.2006989-6.1044922,7.2866058-6.1044922c2.2675934,0,5.3448029,1.0419922,7.3666992,2.1894531l2.3271942-5.7080078
			c-3.5873871-1.7284546-6.7323914-2.5136719-10.3192902-2.5136719c-6.9199982,0-13.210495,4.1171875-13.210495,11.9511719
			v22.8525391c0,8.0186157,6.5492859,10.2061157,13.210495,10.2061157c1.8906097,0,5.2861023-0.3321533,8.7436066-1.5410156
			l0.7543945,0.8955078H225.3110046L225.3110046,920.6143188z"/>
		<polygon points="263.5093079,876.9628906 257.0243835,877.0352173 257.0243835,894.9375 242.0614929,894.9375 
			242.0614929,877.0352173 235.5775909,877.0352173 235.5775909,920.6143188 241.9965973,920.6143188 242.0614929,900.6522827 
			257.089386,900.6522827 257.1542969,920.6143188 263.5093079,920.6143188 263.5093079,876.9628906 		"/>
		<polygon points="298.2568054,882.6688843 298.1864929,876.9628906 270.6391907,876.9628906 270.6391907,882.6688843 
			281.1410828,882.6688843 281.1410828,920.6143188 287.6806946,920.6143188 287.6806946,882.6688843 298.2568054,882.6688843 		"/>
		<polygon points="330.2934875,914.765625 312.4302063,914.765625 312.4302063,900.6522827 326.3862,900.6522827 326.3862,894.9375 
			312.4302063,894.9375 312.4302063,884.0839844 310.730011,882.7440796 329.3466797,882.7440796 330.1650085,876.9628906 
			306.0102844,876.9628906 306.0102844,920.6143188 329.4761047,920.6143188 330.2934875,914.765625 		"/>
		<path d="M362.2655945,918.8867188l-1.6390991-5.8486328c-4.0274048,1.9307251-7.3013,2.4296875-9.1210938,2.4296875
			c-4.8399048,0-6.8540039-1.8564453-6.8540039-4.875v-22.2060547c0-4.2324219,3.2006836-6.1044922,7.3012085-6.1044922
			c2.2548828,0,5.3442993,1.0419922,7.3525696,2.1894531l2.3330078-5.7080078
			C358.0444031,877.0352173,354.8999023,876.25,351.320282,876.25c-6.9179993,0-13.2084961,4.1171875-13.2084961,11.9511719
			v22.8525391c0,8.0186157,6.5396118,10.2061157,13.2084961,10.2061157
			C353.5830078,921.2598267,358.0444031,920.7421875,362.2655945,918.8867188L362.2655945,918.8867188z"/>
		<polygon points="398.7041016,876.9628906 392.2191772,877.0352173 392.2191772,894.9375 377.2568054,894.9375 
			377.2568054,877.0352173 370.7720032,877.0352173 370.7720032,920.6143188 377.1918945,920.6143188 377.2568054,900.6522827 
			392.2841797,900.6522827 392.3495789,920.6143188 398.7041016,920.6143188 398.7041016,876.9628906 		"/>
		<polygon points="414.7666016,920.6143188 414.7666016,914.0645142 408.3466797,914.0645142 408.3466797,920.6143188 
			414.7666016,920.6143188 		"/>
		<path d="M462.8330078,876.9052734h-6.355011l-0.054718,33.2988281c0,4.1923828-5.1546936,5.1367188-6.7982788,5.1367188
			c-1.629425,0-6.6685181-0.9443359-6.6685181-5.1367188v-33.3544922h-6.5390015v34.2587891
			c0,6.8085938,6.8520203,10.1514282,13.2075195,10.1514282c6.355011,0,13.151886-3.3428345,13.151886-10.1514282
			L462.8330078,876.9052734L462.8330078,876.9052734z"/>
		<polygon points="503.0995789,876.9628906 496.7460938,876.9628906 496.7460938,905.2167969 497.7567749,910.6660156 
			477.3725891,876.9628906 471.9076843,876.9628906 471.8432922,920.6143188 478.0648804,920.6143188 478.0648804,892.3046875 
			476.9311829,886.9208984 496.875,920.6143188 503.0995789,920.6143188 503.0995789,876.9628906 		"/>
		<polygon points="537.8378906,882.6688843 537.7749023,876.9628906 510.2250977,876.9628906 510.2250977,882.6688843 
			520.7230835,882.6688843 520.7230835,920.6143188 527.2714844,920.6143188 527.2714844,882.6688843 537.8378906,882.6688843 		"/>
		<polygon points="569.2479858,914.765625 551.3793945,914.765625 551.3793945,900.6522827 565.3496094,900.6522827 
			565.3496094,894.9375 551.3793945,894.9375 551.3793945,884.0839844 549.684082,882.7440796 568.3095703,882.7440796 
			569.1273804,876.9628906 544.9740601,876.9628906 544.9740601,920.6143188 568.4390259,920.6143188 569.2479858,914.765625 		"/>
		<path class="st2" d="M605.3104858,920.6143188v-4.8212891l-9.1849976-13.6065063
			c5.0933228-0.8301392,8.184082-5.0068359,8.184082-10.140625v-4.3623047c0-6.8731079-4.7207031-10.8339844-10.8901978-10.8339844
			h-14.2103882l0.0634766,43.7647095h6.4760132v-17.9014282h3.3295898l11.2046509,17.9014282H605.3104858L605.3104858,920.6143188z
			 M597.8251953,891.4608765c0,3.9942017-2.2637329,5.5352173-5.9165039,5.4609985l-6.1602173-0.0556641l0.0640259-14.1973267
			h6.6049805c2.9603882,0,5.4077148,1.6729126,5.4077148,6.2354126V891.4608765L597.8251953,891.4608765z"/>
		<polygon points="645.9013672,876.9628906 639.5479126,876.9628906 639.5479126,905.2167969 640.5479126,910.6660156 
			620.1776733,876.9628906 614.6967773,876.9628906 614.6308594,920.6143188 620.8662109,920.6143188 620.8662109,892.3046875 
			619.7333984,886.9208984 639.6660156,920.6143188 645.9013672,920.6143188 645.9013672,876.9628906 		"/>
		<polygon points="679.1953125,914.765625 661.3261719,914.765625 661.3261719,900.6522827 675.2979126,900.6522827 
			675.2979126,894.9375 661.3261719,894.9375 661.3261719,884.0839844 659.6328125,882.7440796 678.2578125,882.7440796 
			679.0595703,876.9628906 654.9169922,876.9628906 654.9169922,920.6143188 678.3770142,920.6143188 679.1953125,914.765625 		"/>
		<polygon points="713.9375,876.9628906 707.4541016,877.0352173 707.4541016,894.9375 692.4862671,894.9375 
			692.4862671,877.0352173 686.0020142,877.0352173 686.0020142,920.6143188 692.421875,920.6143188 692.4862671,900.6522827 
			707.5175781,900.6522827 707.5888672,920.6143188 713.9375,920.6143188 713.9375,876.9628906 		"/>
		<polygon class="st2" points="761.0731812,876.9052734 755.9140625,876.8496094 742.0722656,899.9414063 728.1103516,876.9052734 
			722.3261719,876.9052734 722.3261719,920.6143188 728.4208984,920.6143188 728.4208984,891.9141235 727.289978,887.5 
			739.8740234,908.0332031 743.461853,908.0332031 755.5976563,887.5 754.5321655,891.6680298 754.5321655,920.6143188 
			761.0731812,920.6143188 761.0731812,876.9052734 		"/>
		<polygon points="794.352478,914.765625 776.4882813,914.765625 776.4882813,900.6522827 790.453064,900.6522827 
			790.453064,894.9375 776.4882813,894.9375 776.4882813,884.0839844 774.7880859,882.7440796 793.4130859,882.7440796 
			794.2323608,876.9628906 770.078064,876.9628906 770.078064,920.6143188 793.5341797,920.6143188 794.352478,914.765625 		"/>
		<path class="st2" d="M828.5292969,920.6143188v-4.8212891l-9.1796875-13.6065063
			c5.09375-0.8301392,8.1698608-5.0068359,8.1698608-10.140625v-4.3623047c0-6.8731079-4.7119141-10.8339844-10.8798828-10.8339844
			h-14.2197266l0.0645142,43.7647095h6.4852905v-17.9014282h3.3272095l11.2001953,17.9014282H828.5292969L828.5292969,920.6143188z
			 M821.0448608,891.4608765c0,3.9942017-2.2626953,5.5352173-5.9159546,5.4609985l-6.1592407-0.0556641l0.0518188-14.1973267
			h6.6102905c2.9649048,0,5.4130859,1.6729126,5.4130859,6.2354126V891.4608765L821.0448608,891.4608765z"/>
		<polygon points="843.0136719,920.6143188 843.0136719,914.0645142 836.6034546,914.0645142 836.6034546,920.6143188 
			843.0136719,920.6143188 		"/>
		<polygon points="897.1923828,876.9628906 890.8358765,876.9628906 890.8358765,905.2167969 891.8485718,910.6660156 
			871.4628906,876.9628906 865.9882813,876.9628906 865.9354858,920.6143188 872.1474609,920.6143188 872.1474609,892.3046875 
			871.024353,886.9208984 890.9696655,920.6143188 897.1923828,920.6143188 897.1923828,876.9628906 		"/>
		<polygon points="929.8495483,914.765625 911.9882813,914.765625 911.9882813,900.6522827 925.9550781,900.6522827 
			925.9550781,894.9375 911.9882813,894.9375 911.9882813,884.0839844 910.2890625,882.7440796 928.9101563,882.7440796 
			929.7313843,876.9628906 905.5683594,876.9628906 905.5683594,920.6143188 929.039978,920.6143188 929.8495483,914.765625 		"/>
		<polygon points="963.65625,882.6688843 963.5830078,876.9628906 936.0390625,876.9628906 936.0390625,882.6688843 
			946.53125,882.6688843 946.53125,920.6143188 953.0897827,920.6143188 953.0897827,882.6688843 963.65625,882.6688843 		"/>
		<polygon points="996.1327515,914.765625 977.1416016,914.765625 993.546875,882.6688843 993.546875,876.9628906 
			970.085022,876.9628906 969.2080078,882.6688843 986.2597656,882.6688843 969.8476563,915.6699219 969.8476563,920.6143188 
			994.9403687,920.6143188 996.1327515,914.765625 		"/>
		<polygon points="1046.0839844,877.0352173 1039.4150391,876.9628906 1032.0517578,910.9238281 1032.0517578,903.9511719 
			1025.5791016,877.0352173 1018.9727173,877.0352173 1020.4805298,883.25 1014.4481812,910.9238281 1014.4481812,904.1367188 
			1008.2802734,877.0352173 1001.3613281,877.0352173 1011.9833984,920.6143188 1018.2089844,920.6143188 1023.3710938,898.5546875 
			1023.3710938,893.6348267 1029.6699219,920.6143188 1035.8291016,920.6143188 1046.0839844,877.0352173 		"/>
		<polygon points="1077.1748047,914.765625 1059.3105469,914.765625 1059.3105469,900.6522827 1073.2744141,900.6522827 
			1073.2744141,894.9375 1059.3105469,894.9375 1059.3105469,884.0839844 1057.6103516,882.7440796 1076.2324219,882.7440796 
			1077.0449219,876.9628906 1052.9003906,876.9628906 1052.9003906,920.6143188 1076.3515625,920.6143188 1077.1748047,914.765625 
					"/>
		<path class="st2" d="M1111.9775391,920.6143188v-4.8212891l-9.1816406-13.6065063
			c5.0996094-0.8301392,8.1738281-5.0068359,8.1738281-10.140625v-4.3623047
			c0-6.8731079-4.7207031-10.8339844-10.8798828-10.8339844h-14.2128906l0.0517578,43.7647095h6.4863281v-17.9014282h3.3330078
			l11.1953125,17.9014282H1111.9775391L1111.9775391,920.6143188z M1104.4970703,891.4608765
			c0,3.9942017-2.2714844,5.5352173-5.9111328,5.4609985l-6.1708984-0.0556641l0.0732422-14.1973267h6.5947266
			c2.9541016,0,5.4140625,1.6729126,5.4140625,6.2354126V891.4608765L1104.4970703,891.4608765z"/>
		<polygon points="1148.6650391,920.6143188 1133.2480469,898.3164063 1146.4121094,883.3809204 1146.4121094,876.9628906 
			1143.2617188,876.9628906 1127.1621094,895.6738281 1127.1621094,877.0352173 1120.6777344,876.9628906 1120.6777344,920.6143188 
			1127.1621094,920.6143188 1127.1621094,900.8007813 1140.2978516,920.6143188 1148.6650391,920.6143188 		"/>
		<polygon points="1162.2050781,920.6143188 1162.2050781,914.0645142 1155.7763672,914.0645142 1155.7763672,920.6143188 
			1162.2050781,920.6143188 		"/>
	</g>
</g>
<g id="Ebene_2">
	<g>
		<g>
			<path d="M173.2734528,1066.6328125h-8.0855408l-0.0971069-24.9603271h-19.1573029l-0.1092682,24.9603271h-8.1711426v-54.5316162
				h8.2804108v22.4467773h19.0602264v-22.4467773l8.2797241-0.0997314V1066.6328125z"/>
			<path d="M182.1965179,1066.6328125v-7.2930908h8.1097565v-40.1741943h-8.1576538v-7.2470093h24.6077423v7.2470093h-7.9998322
				v40.1741943h7.9998322v7.2930908H182.1965179z"/>
			<path d="M243.3485107,1066.6328125l-0.922699-1.1143799c-4.4191284,1.4914551-8.7410278,1.9055176-11.1576233,1.9055176
				c-8.5224915,0-16.8270874-2.7424316-16.8270874-12.7370605v-28.5400391c0-9.8118286,7.9889679-14.9337769,16.8270874-14.9337769
				c4.5519714,0,8.5723572,0.9712524,13.1601563,3.1194458l-2.9737854,7.1640015
				c-2.5737457-1.4453125-6.518631-2.7565308-9.3966217-2.7565308c-5.2087402,0-9.3122406,2.3309937-9.3122406,7.6356201v27.7564697
				c0,3.762207,2.5737457,6.0791016,8.7423401,6.0791016c1.5411377,0,3.8606262-0.3143311,6.6515961-1.1168213v-14.1173096
				h-7.1014862v-7.4438477h15.2853088v29.0996094H243.3485107z"/>
			<path d="M291.6195679,1066.6328125h-8.0855408l-0.1097717-24.9603271h-19.1446533l-0.0983887,24.9603271h-8.1698303v-54.5316162
				h8.268219v22.4467773h19.0602417v-22.4467773l8.2797241-0.0997314V1066.6328125z"/>
			<path d="M319.7965088,1019.2140503v47.4187622h-8.3154602v-47.4187622h-13.3913574v-7.112854h35.0982056l0.0977783,7.112854
				H319.7965088z"/>
			<path d="M369.6579285,1066.6328125h-29.9021912v-54.6313477h30.7763367l-1.0312805,7.2125854h-23.7477417l2.1853333,1.7113037
				v13.6226196h17.7733459v7.1245117H347.938385v17.6672363h22.7278442L369.6579285,1066.6328125z"/>
			<path d="M394.8126831,1067.4239502c-8.4969788,0-16.8623047-2.7424316-16.8623047-12.7370605v-28.5400391
				c0-9.8118286,8.0368652-14.9337769,16.8623047-14.9337769c4.5647888,0,8.5480042,0.9712524,13.1491699,3.1194458
				l-2.9627991,7.1640015c-2.5732117-1.4453125-6.5072632-2.7565308-9.3838196-2.7565308
				c-5.2203674,0-9.29953,2.3309937-9.29953,7.6356201v27.7564697c0,3.762207,2.549408,6.0791016,8.7410278,6.0791016
				c2.3181763,0,6.4950867-0.6401367,11.6182251-3.0592041l2.0881348,7.2980957
				C403.3606873,1066.7696533,397.7033691,1067.4239502,394.8126831,1067.4239502z"/>
			<path d="M451.6426392,1066.6328125h-8.132782l-0.0619202-24.9603271h-19.1694641l-0.072876,24.9603271h-8.1825562v-54.5316162
				h8.2554321v22.4467773h19.0844116v-22.4467773l8.2797546-0.0997314V1066.6328125z"/>
			<path d="M461.2833252,1066.6328125v-8.1812744h8.1696777v8.1812744H461.2833252z"/>
			<path d="M524.8096313,1066.6328125l-0.9227295-1.1143799c-4.4202881,1.4914551-8.7536621,1.9055176-11.1689453,1.9055176
				c-8.498291,0-16.8271179-2.7424316-16.8271179-12.7370605v-28.5400391c0-9.8118286,7.9889832-14.9337769,16.8271179-14.9337769
				c4.5646362,0,8.5825195,0.9712524,13.1599731,3.1194458l-2.9749146,7.1640015
				c-2.5495605-1.4453125-6.5187988-2.7565308-9.3838501-2.7565308c-5.2203674,0-9.2994995,2.3309937-9.2994995,7.6356201
				v27.7564697c0,3.762207,2.54953,6.0791016,8.7396851,6.0791016c1.5424805,0,3.8619385-0.3143311,6.6542358-1.1168213v-14.1173096
				h-7.1270142v-7.4438477h15.296814v29.0996094H524.8096313z"/>
			<path d="M564.3383789,1066.6328125l-14.2653809-22.3725586h-4.2850342v22.3725586h-8.2310791l-0.0855713-54.7142944h18.1260376
				c7.854187,0,13.8515015,4.9646606,13.8515015,13.5714722v5.4414063c0,6.4074707-3.8963623,11.6151123-10.4036255,12.6833496
				l11.7146606,16.9875488v6.0305176H564.3383789z M561.2189331,1027.0209961c0-5.718811-3.1564331-7.8069458-6.9211426-7.8069458
				h-8.4125977l-0.097229,17.7620239l7.854187,0.0369873c4.6618652,0.1086426,7.5767822-1.810791,7.5767822-6.7755127V1027.0209961z
				"/>
			<path d="M612.0025024,1054.7493896c0,8.498291-8.6439209,12.6745605-16.7306519,12.6745605
				c-8.1212158,0-16.8634644-4.1762695-16.8634644-12.6745605v-42.8308716h8.3410034v41.7000122
				c0,5.2099609,6.4228516,6.4125977,8.5224609,6.4125977c2.0766602,0,8.6439209-1.2026367,8.6439209-6.4125977
				l0.0856323-41.6170654h8.0982056L612.0025024,1054.7493896z M585.0012207,1006.5626831v-7.210083h6.9570313v7.210083H585.0012207
				z M597.8225708,1006.5626831v-7.210083h6.9800415v7.210083H597.8225708z"/>
			<path d="M661.6332397,1066.6328125h-7.965271l-25.4333496-42.1254883l1.4568481,6.75v35.3754883h-7.916748l0.048584-54.5316162
				h6.9941406l25.9558716,42.0770264l-1.2383423-6.7845459v-35.2924805h8.0982666V1066.6328125z"/>
			<path d="M688.3546143,1066.5498047l-17.0576782,0.0830078v-54.7142944h16.2679443
				c8.6452637,0,16.3536377,4.5991821,16.3536377,14.5426636v25.7144775
				C703.9185181,1062.0335693,697.0956421,1066.4539795,688.3546143,1066.5498047z M695.56604,1026.9353027
				c0-3.5334473-2.2338867-7.7697754-8.0982666-7.7697754h-7.8553467v40.1741943h7.8553467
				c5.8643799,0,8.0982666-3.302124,8.0982666-6.9212646V1026.9353027z"/>
			<path d="M742.2946777,1066.6328125h-29.901001v-54.6313477h30.7750244l-1.0197754,7.2125854h-23.7591553l2.1865845,1.7113037
				v13.6226196h17.7976685v7.1245117H720.576355v17.6672363h22.7381592L742.2946777,1066.6328125z"/>
			<path d="M778.6554565,1066.6328125l-14.2770386-22.3725586h-4.2133179v22.3725586h-8.3039551l-0.0842285-54.7142944h18.1375122
				c7.8668823,0,13.9000244,4.9646606,13.9000244,13.5714722v5.4414063c0,6.4074707-3.9450073,11.6151123-10.4521484,12.6833496
				l11.7147217,16.9875488v6.0305176H778.6554565z M775.5475464,1027.0209961c0-5.718811-3.1322632-7.8069458-6.8956299-7.8069458
				h-8.4382324l-0.048584,17.7620239l7.8311768,0.0369873c4.6734009,0.1086426,7.5512695-1.810791,7.5512695-6.7755127V1027.0209961
				z"/>
			<path d="M792.7625122,1066.6328125v-8.1812744h8.1825562v8.1812744H792.7625122z"/>
			<path d="M855.5392456,1056.1206055c-0.0971069,8.8266602-9.5307617,11.3033447-17.1433716,11.3033447
				c-3.8618164,0-8.9237061-0.4140625-13.5984497-2.319458l2.6594849-7.6241455
				c3.946228,1.7597656,7.2125854,2.5136719,10.5018921,2.5136719c2.9750977,0,9.1781006,0.1315918,9.1781006-5.8157959v-4.381958
				c0-2.4025879-0.3398438-3.2076416-2.9736938-4.5047607l-12.371582-6.178833
				c-4.2376099-2.1365967-6.4228516-5.2075195-6.4228516-10.00354v-5.9500122
				c0-8.5097046,8.2681274-11.9460449,16.4749756-11.9460449c4.6375122,0,8.7410278,0.7054443,12.6386719,1.7738037
				l-2.0524292,7.7556152c-4.7346191-1.5284424-7.2956543-1.8312378-10.6833496-1.8312378
				c-3.350769,0-8.0011597,1.3712769-8.0011597,5.3647461v2.7910156c0,2.333374,0.0498657,3.7161865,2.5495605,4.9417725
				l14.4225464,7.1894531c3.7648315,1.8569336,4.9788208,5.2076416,4.9060669,9.626709L855.5392456,1056.1206055z"/>
			<path d="M879.734314,1067.4239502c-8.5110474,0-16.8264771-2.7424316-16.8264771-12.7370605v-28.5400391
				c0-9.8118286,8.0009766-14.9337769,16.8264771-14.9337769c4.5532227,0,8.5595093,0.9712524,13.1612549,3.1194458
				l-2.9749146,7.1640015c-2.5610962-1.4453125-6.5072632-2.7565308-9.3966675-2.7565308
				c-5.2088013,0-9.3007202,2.3309937-9.3007202,7.6356201v27.7564697c0,3.762207,2.5622559,6.0791016,8.7422485,6.0791016
				c2.3424683,0,6.5072021-0.6401367,11.6188354-3.0592041l2.0996704,7.2980957
				C888.2938232,1066.7696533,882.625,1067.4239502,879.734314,1067.4239502z"/>
			<path d="M936.5635376,1066.6328125h-8.0840454l-0.0984497-24.9603271h-19.170166l-0.097229,24.9603271h-8.1696167v-54.5316162
				h8.2668457v22.4467773h19.0857544v-22.4467773l8.2669067-0.0997314V1066.6328125z"/>
			<path d="M995.6165771,1066.6328125h-8.3296509v-36.1779785l1.3482666-5.1936035l-15.4794922,25.6633301h-4.5519409
				l-16.0380249-25.6633301l1.4326782,5.5219727v35.8496094h-7.7711182v-54.6313477h7.34552l17.8231812,28.7852783
				l17.6634521-28.8682251l6.5571289,0.0829468V1066.6328125z"/>
			<path d="M1004.5390015,1066.6328125v-7.2930908h8.1339111v-40.1741943h-8.1824951v-7.2470093h24.5834351v7.2470093h-7.9997559
				v40.1741943h7.9997559v7.2930908H1004.5390015z"/>
			<path d="M1067.8754883,1066.6328125h-29.9022217v-54.6313477h30.7763672l-1.03125,7.2125854h-23.74646l2.184082,1.7113037
				v13.6226196h17.7988281v7.1245117h-17.7988281v17.6672363h22.7647705L1067.8754883,1066.6328125z"/>
			<path d="M1094.4882813,1066.5498047l-17.1177979,0.0830078v-54.7142944h16.303833
				c8.6566162,0,16.3306885,4.5991821,16.3306885,14.5426636v25.7144775
				C1110.0050049,1062.0335693,1103.2050781,1066.4539795,1094.4882813,1066.5498047z M1101.6766357,1026.9353027
				c0-3.5334473-2.2351074-7.7697754-8.0880127-7.7697754h-7.8413086v40.1741943h7.8413086
				c5.8529053,0,8.0880127-3.302124,8.0880127-6.9212646V1026.9353027z"/>
			<path d="M1148.4295654,1066.6328125h-29.9519043v-54.6313477h30.8260498l-1.0823975,7.2125854h-23.697876l2.135376,1.7113037
				v13.6226196h17.7990723v7.1245117h-17.7990723v17.6672363h22.7764893L1148.4295654,1066.6328125z"/>
			<path d="M1157.9104004,1066.6328125v-8.1812744h8.1827393v8.1812744H1157.9104004z"/>
		</g>
		<g>
			<path d="M250.6453552,913.6663818l-9.1063843-30.4975586c-18.598938,7.7952881-31.8805389,11.0578613-42.4054413,11.0578613
				c-20.4819946,0-26.8920288-9.940979-26.8920288-19.6417236v-87.2414551c0-14.6654663,11.363327-24.6447754,28.5546112-24.6447754
				c9.1167145,0,23.5520935,4.4317627,34.3825531,11.3518066l12.4303589-30.4849243
				c-19.1331177-10.2221069-35.4502563-12.7601318-52.0581665-12.7601318
				c-31.3105011,0-59.0261688,18.0175171-59.0261688,53.2243652V876.25c0,36.5794067,29.3553314,48.7669067,59.0261688,48.7669067
				C205.7851257,925.0169067,228.7686462,922.7716064,250.6453552,913.6663818"/>
			<polygon points="384.3605347,786.2406006 347.5140381,786.2406006 320.3555603,888.4145508 320.3555603,858.5136719 
				297.3618164,786.2406006 257.4925842,786.2406006 302.9215393,922.2234497 307.3411865,922.2234497 292.3722839,972.1110229 
				325.9043884,972.1110229 			"/>
			<path class="st2" d="M515.2110596,824.7381592c0.2914429-37.1262817-32.3921509-42.1293335-49.8485718-42.1293335
				c-5.2445984,0-15.2008972,1.166748-24.9131775,5.0030518v-35.5966797v-32.5473633h-35.4617615v199.4559937
				c25.4581909,5.2791138,39.613678,6.0930786,55.7002258,6.0930786c29.9021912,0,53.9776306-11.9230347,54.2561951-44.881958
				L515.2110596,824.7381592z M479.2381592,828.065918v52.348938c0,11.6176147-16.6322327,18.8276978-38.7888489,10.7919922
				v-70.6590576C453.1850891,812.2796631,479.2381592,806.7565308,479.2381592,828.065918"/>
			<path class="st2" d="M646.2086792,832.4709473c0-26.0032349-9.4591675-49.5708008-52.9342651-49.5708008
				c-31.565918,0-51.840271,16.6079102-51.840271,48.4909058v48.7438965c0,35.4382324,25.8230591,44.881958,55.4351196,44.881958
				c13.0144043,0,30.2050171-2.8151855,47.6742554-10.5377197l-8.8981934-30.1934814
				c-12.7114258,6.6784058-58.9801025,22.7266235-58.9801025-10.7806396v-9.4208374h69.543457V832.4709473z
				 M611.2906494,827.7719116v5.2471924h-34.6254272l-0.289978-6.0726929
				c-0.5585327-9.3953247,5.8259888-15.2111206,18.3074951-15.2111206
				C607.1143799,811.7352905,611.2906494,818.6424561,611.2906494,827.7719116"/>
			<path d="M751.3934937,787.8534546c-20.2384644-7.6970215-36.8707275-6.3488159-49.0723267,5.8401489l-5.8146362-7.7456055
				H676.899353l-0.2913208,136.0108643h35.4380493V821.9445801c5.815918-6.3729858,17.2021484-7.1870728,31.8446655-0.2657471
				L751.3934937,787.8534546z"/>
			<g>
				<path class="st4" d="M885.0721436,924.3626099H785.567749V734.3032227h35.6694336V893.149353h68.5939331
					L885.0721436,924.3626099z"/>
				<path class="st4" d="M990.6938477,924.3626099l-7.5140381-5.0272217
					c-8.8994751,4.2017822-23.1036377,7.7952881-31.2376099,7.7952881c-23.649353,0-46.7887573-7.234314-46.7887573-41.4993286
					v-10.0611572c0-28.6765747,25.9073486-40.3811646,47.6627197-40.6712646l21.998291-0.2683105v-4.1877441
					c0-11.9959106-10.5864258-15.868042-20.8814087-15.868042c-9.2277832,0-22.0466919,2.2107544-30.6662598,6.1327515
					l-7.2355957-27.0255127c12.2616577-5.8401489,29.7922363-9.4950562,44.0449829-9.4950562
					c29.222229,0,50.9891357,14.4840698,50.9891357,43.487793v96.6878052H990.6938477z M974.8144531,863.8898926h-16.7164917
					c-11.4003906,0-16.4265137,6.4126587-16.4265137,14.4968872v8.3525391c0,15.611145,22.2653198,11.7146606,33.1430054,6.130127
					V863.8898926z"/>
				<path class="st4" d="M1149.5656738,881.9916992c-0.2670898,33.178833-24.5131836,45.1389771-54.5841064,45.1389771
					c-16.182251,0-30.3762207-0.8255615-56.0178223-6.1327515V720.0862427h35.6451416v32.8759766v35.9710693
					c9.7736816-3.9206543,19.8128662-5.0248413,25.0703125-5.0248413c17.5792236,0,50.4576416,5.0248413,50.1905518,42.3810425
					L1149.5656738,881.9916992z M1074.6088867,822.0788574v71.0704956
					c22.3037109,8.0612183,39.0457764,0.8370972,39.0457764-10.8892212v-52.6543579
					C1113.6546631,808.1533203,1087.4290771,813.7492676,1074.6088867,822.0788574z"/>
			</g>
		</g>
		<g>
			<path class="st3" d="M473.4120483,232.1954498c0,0-21.0895996,23.5879669-38.8629456,59.4759369
				c0,0-22.6295471,5.8029785-43.4385681,5.8029785c-20.7969971,0-18.4047241-6.9927368-16.3408203-9.045166
				C418.5117493,245.3184509,473.4120483,232.1954498,473.4120483,232.1954498"/>
			<path class="st3" d="M435.0832825,291.9384766c0,0-4.103363,6.9807129-7.2471313,15.3210449
				c0,0,21.8282776-3.4714661,49.4595337-11.6432495c34.0432434-10.0879517,94.1262512-34.1997375,113.8050232-65.1575775
				c0.1456299-0.205719-6.2145386-1.9666901-14.3127441-3.5449982
				c-0.1329346-0.0126953-10.4534912,13.7428741-41.0469971,30.1577759
				C513.9241943,268.8233032,481.848938,282.0320129,435.0832825,291.9384766"/>
			<path class="st3" d="M427.0706177,307.9157715c0,0-1.5296326,3.2535706-3.8119507,9.5294495
				c-3.0593567,8.376709-8.0248108,23.4678345-11.3269348,40.6341248c-0.0121765,0.1099243-9.202301,1.7009277-25.7987061,1.7009277
				c-25.9917297,0-34.6855164-4.0304871-34.6855164-4.0304871s1.7239685-1.3112183,6.8586121-5.4287109
				c0.0856018-0.0715637-2.208252,1.3482361-4.3577271,2.7935791c-1.6625977,1.1297302-3.2779236,2.3308716-3.2779236,2.3308716
				s-13.3184814-3.4605713-13.3184814-16.2435913c0-5.9014893,0.9712219-5.6088867,2.7679443-8.8023987
				c1.7611084-3.1564636,8.4023438-13.0999451,20.3485107-26.830658c0.0727844-0.0971069,2.0522766,7.309021,31.3103943,7.309021
				C411.2275696,310.8778992,427.0706177,307.9157715,427.0706177,307.9157715"/>
			<path class="st3" d="M411.9317322,358.5662842c0,0-1.5539551,7.0899658-2.4766235,13.9000244
				c0,0.0370483,49.4244385-3.9820557,111.5233459-26.2601013c87.5072021-31.3105164,134.6140747-69.8316345,134.6140747-90.3857574
				c0-0.3271484-4.3590698-2.8293152-12.1530762-6.0101166c-0.0498657-0.0230408,1.9181519,19.01297-51.864624,50.286438
				C561.1142578,317.8222351,493.9164124,348.2943115,411.9317322,358.5662842"/>
			<path class="st3" d="M409.0909119,372.9391174c0,0-4.9775085,29.4779358-3.1564636,57.4006348
				c0,0.1219482-15.187561,1.348114-27.6070557,1.348114c-10.0405884,0-31.2631531-0.849823-46.5720215-7.1991272
				c-0.1808472-0.1092529,0.4369507,0.2070313,0.1589966,0.072113c-0.1589966-0.0478821,6.4452515-7.0891724,14.5428162-13.8883972
				c9.640686-8.0854187,21.0027161-16.1709595,21.0027161-16.1709595s-11.5690308,7.4784851-21.6825256,15.151825
				c-8.8381042,6.7250061-16.3651428,13.7791443-16.5593567,13.6942139
				c-8.8381348-4.2612-15.1275024-10.599762-15.1275024-20.1043701c0-16.8769531,24.2326965-37.1626587,24.2326965-37.1626587
				s9.045166,8.4368896,43.1351318,8.4368896C397.5691223,374.517395,409.0909119,372.9391174,409.0909119,372.9391174"/>
			<path class="st3" d="M337.2305603,365.3034668c0,0-8.0482788-4.6490479-8.0482788-16.8876953
				c0,0-12.3837585,22.7151184-17.8104858,43.7548523C311.3717957,392.1706238,317.4060974,381.1829834,337.2305603,365.3034668"/>
			<path class="st3" d="M317.8183289,435.4150085c0,0-11.5576477-6.6043701-13.2814636-14.8233948
				c0,0-3.447876,19.6679382-3.447876,43.7900696C301.0889893,464.5516663,303.0678406,451.5257874,317.8183289,435.4150085"/>
			<path class="st3" d="M321.3746948,437.3695068c11.8010559,4.6254883,21.6347351,8.6195984,56.4785767,8.6195984
				c18.4533081,0,28.9424744-1.3717957,28.9424744-1.3717957s2.6107788,30.4964294,10.647644,53.4185791
				c0.0729065,0.1584778-11.8130798,0.8983459-24.8874817,0.8983459c-9.9436646,0-28.5195618-0.4127197-45.2974548-4.5276184
				c-0.1942139-0.072876,8.6081848-9.2394714,18.915863-17.6418152c9.6752319-7.9269714,21.4161072-15.175415,21.4161072-15.175415
				s-11.9223633,6.2529907-22.4487,14.1314087c-18.0161133,13.5740662-21.2812805,17.5190735-21.3910828,17.494751
				c-17.5791626-4.8318787-31.4561462-13.4399414-31.4561462-31.0306091
				C312.2944946,449.4369812,321.1325989,437.3209534,321.3746948,437.3695068"/>
			<path class="st3" d="M406.4200439,430.6924133c0,0,0.1700134,6.0573425,0.6676636,13.3421631
				c0,0.0613708,28.4326477-1.929657,72.4674072-12.3467102c50.0786133-11.836792,85.3110352-25.2402039,126.8794556-45.0545654
				c83.8676147-39.9057617,104.2160645-78.4504395,104.2160645-85.0798035c0-0.6791382-3.1935425-4.5768127-10.5875854-10.7799377
				c-0.3641968-0.2919312-5.5360107,37.427948-95.2182617,82.1655579
				C543.0621948,403.7767029,465.1069031,426.1640015,406.4200439,430.6924133"/>
			<path class="st3" d="M417.8683167,498.5215149c0,0,2.3309937,8.1582947,4.9411011,14.8597717
				c0.0121765,0,35.7532043-2.8408508,86.8414307-15.4425049c41.4712219-10.2221069,88.2497253-26.515686,129.6007996-46.7771912
				c54.2799683-26.5635681,99.2730713-59.6465759,110.8791504-92.1109924c0-0.0971069-2.7435913-5.924408-8.0009766-15.8552246
				c-0.048584-0.0242004-1.6869507,3.9820557-5.5231934,11.0119629
				c-4.5532837,8.2425842-23.0679321,48.7195435-125.4489136,93.3722229
				C549.569458,474.4824829,479.3109131,494.2481384,417.8683167,498.5215149"/>
			<path class="st3" d="M302.6914673,484.5358887c0,0,2.3795776,32.3544922,12.6131592,55.6638794
				c0,0,0.2919617-14.9697266,16.0258484-33.1686096C331.6461182,506.6798096,309.0043945,501.1080627,302.6914673,484.5358887"/>
			<path class="st3" d="M447.4785461,565.6464233c0,0-14.7990417-22.6907959-24.6327209-51.6582642
				c-0.0364075-0.1212769-20.7963562,1.1904297-31.8439026,1.1904297c-11.0720215,0-35.5353088-0.3763428-54.3782959-6.459198
				c-0.0971069,0-8.752533,11.2418518-8.752533,22.9578552c0,19.1938477,19.2787476,28.9061279,43.5465088,33.2036743
				c0.2927551,0.0741577,6.5813293-7.0771484,14.3275452-13.9127197
				c9.0074768-7.9761963,18.4289551-14.5561523,18.4289551-14.5561523s-9.3244019,7.5634155-17.1427307,15.2724609
				c-6.75,6.713501-12.1889038,13.7677612-11.8732605,13.8278198c10.6598206,1.578125,22.0838623,2.2337646,33.2044373,2.2337646
				C431.3926392,567.7460938,447.5878296,565.7794189,447.4785461,565.6464233"/>
			<path class="st3" d="M457.3983765,580.0205688c0,0-4.1889648-5.7416992-9.3122253-14.2041626
				c-0.0115356-0.0491943,38.5102539-3.2056274,84.5712585-15.9281006
				c96.480835-26.6242676,149.1951904-56.902832,184.3776855-81.1118469
				c32.4644775-22.4110107,50.4678345-48.9253845,50.4678345-54.8504333c0,0,1.9553223,5.6337585,4.7717896,23.3470459
				c0,0-7.8796997,15.7938232-43.5477905,41.8610535c-34.3455811,25.1175842-99.8686523,59.863678-188.5911865,84.108551
				C512.9772949,570.6968384,490.7471313,574.4597168,457.3983765,580.0205688"/>
			<path class="st3" d="M495.5431519,624.90448c0,0-24.0262146-22.6787109-38.4489136-44.3982544
				c-0.0855713-0.0614014-28.2996826,3.4119873-51.8639526,3.4119873c-27.8267517,0-38.8859558-2.9622803-38.8859558-2.9622803
				s-1.9553223,4.8319092-1.9553223,10.8777466c0,20.4084473,21.4397583,36.7492676,80.2001648,36.7492676
				c3.655426,0,7.2848206-0.0727539,10.7198792-0.1578369c0.1942139,0,2.8663635-2.6714478,5.9742737-5.1237793
				c3.459259-2.6836548,7.3570557-5.1104736,7.3570557-5.1104736s-3.4734192,3.0223389-6.4830627,5.8516846
				c-2.343689,2.1724854-4.5160828,4.3098145-4.3589172,4.2855225
				C479.6393738,627.4890747,495.5431519,624.90448,495.5431519,624.90448"/>
			<path class="st3" d="M359.6914063,579.6320801c0,0-23.1151428-3.9577637-34.5281982-15.175415
				c-0.1457825-0.0855713,12.7472839,26.1630249,27.728363,43.8022461
				C352.891571,608.2589111,349.6635132,594.7473755,359.6914063,579.6320801"/>
			<path class="st3" d="M496.2479553,625.0015869c0,0,6.7014465,5.8510132,13.8041382,11.6911011
				c0.0243225,0,27.7156067-4.1398315,66.3832092-15.211731c56.5021362-16.2686157,141.1339722-49.6315308,188.3125-97.4648438
				c0.1572266-0.1700439,6.2030029-19.375885,6.2030029-29.6094971c0,0-15.8666992,30.5935059-74.6754761,63.3971558
				C645.260498,586.2363892,576.59375,613.4190674,496.2479553,625.0015869"/>
			<path class="st3" d="M440.2435913,643.3327637c-48.3446045,0-65.0496216-11.3389282-65.0496216-11.3389282
				s21.3438416,23.0549316,59.6464233,41.7509766c0,0-3.4477539-4.5883179-3.4477539-10.2584839
				C431.3926392,652.8271484,440.2435913,643.3327637,440.2435913,643.3327637"/>
			<path class="st3" d="M447.5878296,643.1998291c9.0207825,0,36.1307068-0.5098267,62.5971985-6.1914673
				c0.0485229-0.0128174,13.7070007,13.56073,48.7068176,32.2567139c0.0971069,0.048584-31.0791016,7.1264038-60.6885986,7.1264038
				c-15.8444824,0-53.4921265-1.8804932-53.4921265-23.8313599
				C444.7111206,647.4125977,447.3207397,643.1998291,447.5878296,643.1998291"/>
			<path class="st3" d="M537.9262085,697.067627c-35.8995056,0-58.4081421-7.1141357-58.4081421-7.1141357
				s36.8342285,4.3588867,99.2595825-11.340332c0.1099243-0.024292,21.7694092,9.1063843,25.944519,9.1063843
				C605.1348877,687.7195435,583.0153198,697.067627,537.9262085,697.067627"/>
			<path class="st3" d="M559.7787476,669.4350586c0,0,8.5596313,4.1398926,19.2659912,8.7780762
				c0.072937,0.048584,72.5530396-17.40979,123.1779785-48.3918457
				c0.7910767-0.4741211,27.7424927-29.0408936,36.8233643-46.6801147
				c0.0358887-0.0727539-9.8450928,16.7537231-43.9119873,36.057312
				c-20.8583984,11.885437-47.3727417,24.3171387-72.831604,33.3737793
				C597.0864868,661.5438843,572.8302612,666.4127808,559.7787476,669.4350586"/>
		</g>
	</g>
</g>
</svg>
