<?xml version="1.0" standalone="no"?>
<!DOCTYPE svg PUBLIC "-//W3C//DTD SVG 20010904//EN"
 "http://www.w3.org/TR/2001/REC-SVG-20010904/DTD/svg10.dtd">
<svg version="1.0" xmlns="http://www.w3.org/2000/svg"
 width="500.000000pt" height="500.000000pt" viewBox="0 0 500.000000 500.000000"
 preserveAspectRatio="xMidYMid meet">
<metadata>
Created by potrace 1.11, written by Peter Selinger 2001-2013
</metadata>
<g transform="translate(0.000000,500.000000) scale(0.100000,-0.100000)"
fill="#000000" stroke="none">
<path d="M0 2500 l0 -2500 2500 0 2500 0 0 2500 0 2500 -2500 0 -2500 0 0
-2500z m580 480 l0 -300 295 0 295 0 0 300 0 300 205 0 205 0 0 -780 0 -780
-205 0 -205 0 0 330 0 330 -295 0 -295 0 0 -330 0 -330 -205 0 -205 0 0 780 0
780 205 0 205 0 0 -300z m2640 150 l0 -150 -260 0 -260 0 0 -630 0 -630 -200
0 -200 0 0 630 0 630 -260 0 -260 0 0 150 0 150 720 0 720 0 0 -150z m463 53
c20 -54 99 -276 177 -493 190 -532 193 -541 201 -532 4 4 28 63 52 132 74 204
220 612 289 805 l64 180 182 3 182 2 0 -66 c0 -61 -15 -106 -206 -623 -114
-306 -233 -626 -264 -711 l-58 -155 -243 -3 -244 -2 -104 282 c-58 156 -129
348 -159 428 -29 80 -71 192 -92 250 -21 58 -79 215 -129 350 -50 134 -91 245
-91 247 0 2 92 3 203 3 l204 0 36 -97z"/>
</g>
</svg>
