<?xml version="1.0" standalone="no"?>
<!DOCTYPE svg PUBLIC "-//W3C//DTD SVG 20010904//EN"
 "http://www.w3.org/TR/2001/REC-SVG-20010904/DTD/svg10.dtd">
<svg version="1.0" xmlns="http://www.w3.org/2000/svg"
 width="260.000000pt" height="260.000000pt" viewBox="0 0 260.000000 260.000000"
 preserveAspectRatio="xMidYMid meet">
<metadata>
Created by potrace 1.11, written by Peter Selinger 2001-2013
</metadata>
<g transform="translate(0.000000,260.000000) scale(0.100000,-0.100000)"
fill="#000000" stroke="none">
<path d="M0 1300 l0 -1300 1300 0 1300 0 0 1300 0 1300 -1300 0 -1300 0 0
-1300z m330 240 l0 -150 145 0 145 0 0 150 0 150 105 0 105 0 0 -390 0 -390
-105 0 -105 0 0 165 0 165 -145 0 -145 0 0 -165 0 -165 -100 0 -100 0 0 390 0
390 100 0 100 0 0 -150z m1643 -138 l101 -282 64 177 c34 98 80 225 101 283
l37 105 102 3 c56 1 102 -1 102 -4 0 -4 -64 -180 -142 -391 l-141 -383 -123 0
-122 0 -110 298 c-61 163 -126 338 -144 387 l-33 90 -3 -72 -3 -73 -129 0
-130 0 0 -315 0 -315 -105 0 -105 0 0 315 0 315 -130 0 -130 0 0 75 0 75 471
-2 471 -3 101 -283z"/>
</g>
</svg>
