<?xml version="1.0" encoding="UTF-8" standalone="no"?>
<!-- Created with Inkscape (http://www.inkscape.org/) -->

<svg
   xmlns:dc="http://purl.org/dc/elements/1.1/"
   xmlns:cc="http://creativecommons.org/ns#"
   xmlns:rdf="http://www.w3.org/1999/02/22-rdf-syntax-ns#"
   xmlns:svg="http://www.w3.org/2000/svg"
   xmlns="http://www.w3.org/2000/svg"
   xmlns:sodipodi="http://sodipodi.sourceforge.net/DTD/sodipodi-0.dtd"
   xmlns:inkscape="http://www.inkscape.org/namespaces/inkscape"
   width="476.81445mm"
   height="145.2235mm"
   viewBox="0 0 476.81445 145.2235"
   version="1.1"
   id="svg8"
   inkscape:version="0.92.4 5da689c313, 2019-01-14"
   sodipodi:docname="plexilaser-logo.svg">
  <defs
     id="defs2">
    <pattern
       y="0"
       x="0"
       height="6"
       width="6"
       patternUnits="userSpaceOnUse"
       id="EMFhbasepattern" />
  </defs>
  <sodipodi:namedview
     id="base"
     pagecolor="#ffffff"
     bordercolor="#666666"
     borderopacity="1.0"
     inkscape:pageopacity="0.0"
     inkscape:pageshadow="2"
     inkscape:zoom="0.35"
     inkscape:cx="848.20951"
     inkscape:cy="100.15242"
     inkscape:document-units="mm"
     inkscape:current-layer="layer1"
     showgrid="false"
     inkscape:window-width="1902"
     inkscape:window-height="999"
     inkscape:window-x="0"
     inkscape:window-y="0"
     inkscape:window-maximized="0" />
  <metadata
     id="metadata5">
    <rdf:RDF>
      <cc:Work
         rdf:about="">
        <dc:format>image/svg+xml</dc:format>
        <dc:type
           rdf:resource="http://purl.org/dc/dcmitype/StillImage" />
        <dc:title />
      </cc:Work>
    </rdf:RDF>
  </metadata>
  <g
     inkscape:label="Ebene 1"
     inkscape:groupmode="layer"
     id="layer1"
     transform="translate(248.2346,90.843889)">
    <path
       id="path110"
       d="m -203.34111,-22.425159 c 0,-1.915078 -0.15119,-3.457221 -0.44349,-4.626428 -0.2923,-1.169207 -0.83659,-2.076349 -1.63286,-2.711349 -0.79627,-0.635 -1.87476,-1.058333 -3.2254,-1.280081 -1.36071,-0.211666 -3.0742,-0.312459 -5.15055,-0.312459 h -13.23421 c -1.8546,0 -3.39674,0.131032 -4.62643,0.393096 -1.2196,0.272143 -2.17714,0.735793 -2.86254,1.40103 -0.69547,0.665239 -1.1692,1.562304 -1.44134,2.711349 -0.26207,1.138968 -0.3931,2.590398 -0.3931,4.344207 v 14.1111111 h 22.63826 c 2.07634,0 3.77976,-0.09071 5.11023,-0.282221 1.3204,-0.18143 2.38881,-0.594683 3.18508,-1.229683 0.79627,-0.6450801 1.34056,-1.5421421 1.63286,-2.7113491 0.2923,-1.169207 0.44349,-2.741589 0.44349,-4.707065 z m -8.93032,-19.060078 c 4.03175,0 7.38818,0.332618 10.03905,0.997857 2.66095,0.665237 4.7877,1.733651 6.38024,3.185078 1.60262,1.471589 2.72143,3.396748 3.39674,5.785557 0.65516,2.388809 0.98778,5.311825 0.98778,8.769045 v 5.825874 c 0,3.447143 -0.33262,6.360081 -0.98778,8.7287311 -0.67531,2.368651 -1.79412,4.273651 -3.39674,5.735159 -1.59254,1.471586 -3.71929,2.529919 -6.38024,3.195158 -2.65087,0.665237 -6.0073,0.997858 -10.03905,0.997858 h -24.0796 V 14.646743 H -248.2346 V -22.7477 c 0,-3.45722 0.33262,-6.380236 0.99786,-8.769045 0.66523,-2.388809 1.79412,-4.313968 3.38666,-5.785557 1.59254,-1.451427 3.71929,-2.519841 6.38024,-3.185078 2.66095,-0.665239 6.0073,-0.997857 10.04913,-0.997857 z"
       style="fill:#313130;fill-opacity:1;fill-rule:nonzero;stroke:none;stroke-width:0.26458332"
       inkscape:connector-curvature="0" />
    <path
       id="path112"
       d="m -184.45238,1.7350801 h 12.1154 V -59.315635 h -12.1154 z"
       style="fill:#313130;fill-opacity:1;fill-rule:nonzero;stroke:none;stroke-width:0.26458332"
       inkscape:connector-curvature="0" />
    <path
       id="path114"
       d="m -120.91206,-28.724761 c 0,-1.44135 -0.36286,-2.38881 -1.0785,-2.872619 -0.71563,-0.473731 -1.97555,-0.715637 -3.78984,-0.715637 h -19.76563 c -1.49175,0 -2.74159,0.07056 -3.74952,0.201589 -1.01802,0.131032 -1.82437,0.433411 -2.43921,0.91722 -0.60476,0.473732 -1.04825,1.169207 -1.31032,2.066272 -0.27214,0.907142 -0.40317,2.126744 -0.40317,3.66889 v 2.318252 h 32.53619 z m -32.53619,13.234207 v 1.995712 c 0,1.330476 0.11087,2.388809 0.32254,3.185081 0.21166,0.7962681 0.59468,1.4211901 1.15912,1.8747601 0.55437,0.453573 1.30024,0.755955 2.22754,0.917223 0.9273,0.161269 2.08643,0.241904 3.4673,0.241904 H -105.41 l -9.17222,9.010954 h -31.68953 c -6.85396,0 -11.74246,-1.310317 -14.66547,-3.910793 -2.92302,-2.600479 -4.38453,-6.773333 -4.38453,-12.5185731 v -9.968492 c 0,-3.134682 0.30239,-5.775475 0.91723,-7.932459 0.60476,-2.146906 1.67317,-3.880557 3.18508,-5.180796 1.5119,-1.300236 3.51769,-2.247696 6.01738,-2.832301 2.49968,-0.584602 5.6646,-0.876903 9.49476,-0.876903 h 20.88444 c 3.08429,0 5.65453,0.292301 7.70064,0.876903 2.04611,0.584605 3.65881,1.401032 4.85825,2.429126 1.19945,1.038175 2.03604,2.288016 2.50976,3.749525 0.48381,1.461508 0.71564,3.04397 0.71564,4.747381 v 14.191748 z"
       style="fill:#313130;fill-opacity:1;fill-rule:nonzero;stroke:none;stroke-width:0.26458332"
       inkscape:connector-curvature="0" />
    <path
       id="path116"
       d="M -63.7419,1.7350801 -78.33682,-13.898017 -93.16357,1.7350801 h -14.51429 l 22.40643,-22.4870651 -20.89452,-20.733252 h 14.27238 l 14.04056,14.594919 14.34293,-14.594919 h 14.35302 l -21.60008,21.126349 21.84198,22.0939681 z"
       style="fill:#313130;fill-opacity:1;fill-rule:nonzero;stroke:none;stroke-width:0.26458332"
       inkscape:connector-curvature="0" />
    <path
       id="path118"
       d="M -43.57309,1.7350801 H -31.4577 V -41.777541 h -12.11539 z"
       style="fill:#313130;fill-opacity:1;fill-rule:nonzero;stroke:none;stroke-width:0.26458332"
       inkscape:connector-curvature="0" />
    <path
       id="path120"
       d="M -2.62063,1.7350801 H 9.49476 V -59.315635 H -2.62063 Z"
       style="fill:#313130;fill-opacity:1;fill-rule:nonzero;stroke:none;stroke-width:0.26458332"
       inkscape:connector-curvature="0" />
    <path
       id="path122"
       d="M 62.83476,-17.798729 H 32.13301 c -1.38086,0 -2.46944,0.302379 -3.2657,0.91722 -0.79629,0.604764 -1.19946,1.76389 -1.19946,3.467301 v 2.943175 c 0,1.5421451 0.43341,2.6105571 1.28008,3.1951591 0.84667,0.584605 2.04613,0.876906 3.58825,0.876906 h 22.32581 c 1.38086,0 2.58032,-0.110874 3.58825,-0.322541 1.00793,-0.211666 1.83444,-0.594683 2.46944,-1.149045 0.635,-0.564447 1.11881,-1.350638 1.43129,-2.3585731 0.32252,-1.007936 0.48379,-2.308175 0.48379,-3.910793 z M 31.6593,1.7350801 c -3.1347,0 -5.715,-0.272143 -7.73089,-0.796272 -2.02594,-0.534204 -3.62857,-1.290158 -4.82801,-2.277935 -1.19943,-0.977699 -2.03605,-2.177142 -2.50976,-3.588253 -0.48381,-1.411113 -0.71564,-2.983494 -0.71564,-4.747381 v -4.0619841 c 0,-1.804207 0.22175,-3.416906 0.67532,-4.828016 0.45358,-1.401033 1.22968,-2.600476 2.3485,-3.588256 1.11881,-0.977696 2.64078,-1.72357 4.5861,-2.227537 1.94532,-0.503971 4.39459,-0.755955 7.37809,-0.755955 h 31.97175 v -0.957537 c 0,-2.761748 -0.56444,-4.61635 -1.67318,-5.543654 -1.11881,-0.927301 -3.00365,-1.390951 -5.66459,-1.390951 H 17.67922 v -8.456586 h 37.81777 c 3.45723,0 6.39032,0.322537 8.80935,0.957537 2.41906,0.635 4.40468,1.612699 5.94683,2.912939 1.53207,1.300236 2.67105,2.953252 3.38667,4.938887 0.71564,1.995715 1.07849,4.374446 1.07849,7.136191 v 10.522857 c 0,3.144763 -0.31244,5.7754761 -0.91723,7.9022231 -0.61484,2.126745 -1.67317,3.850317 -3.19513,5.180793 -1.51191,1.330476 -3.53788,2.267858 -6.05772,2.832301 -2.52992,0.554366 -5.70492,0.836589 -9.525,0.836589 z"
       style="fill:#313130;fill-opacity:1;fill-rule:nonzero;stroke:none;stroke-width:0.26458332"
       inkscape:connector-curvature="0" />
    <path
       id="path124"
       d="m 132.51341,-9.7453179 c 0,2.126747 -0.1915,3.920874 -0.55435,5.382382 -0.37296,1.461508 -1.10874,2.640793 -2.19731,3.537857 -1.08858,0.907143 -2.58033,1.562301 -4.46517,1.955396 -1.88483,0.403174 -4.34419,0.604763 -7.37809,0.604763 H 80.76597 v -9.333492 h 35.64061 c 1.59256,0 2.71135,-0.262064 3.34635,-0.796271 0.64508,-0.534205 0.95755,-1.542143 0.95755,-3.0338881 v -1.431271 c 0,-1.592538 -0.30239,-2.590395 -0.91723,-2.99357 -0.60476,-0.393097 -1.63285,-0.594683 -3.06411,-0.594683 H 92.48825 c -2.44927,0 -4.42484,-0.241906 -5.93675,-0.715634 -1.52199,-0.483812 -2.70126,-1.199446 -3.54793,-2.156984 -0.85674,-0.95754 -1.43126,-2.136828 -1.72357,-3.547938 -0.29231,-1.401032 -0.43342,-3.064127 -0.43342,-4.979207 v -3.265713 c 0,-1.864682 0.20159,-3.457223 0.59468,-4.787698 0.40317,-1.330476 1.04825,-2.408968 1.95541,-3.225398 0.90715,-0.826508 2.12674,-1.431269 3.66889,-1.794127 1.54213,-0.372935 3.47737,-0.564443 5.81578,-0.564443 h 39.63207 v 9.010951 H 95.75398 c -1.16922,0 -2.00581,0.211667 -2.50976,0.635 -0.50398,0.433412 -0.75597,1.199444 -0.75597,2.318253 v 1.995715 c 0,1.219605 0.24191,2.04611 0.71565,2.469444 0.48379,0.423333 1.24984,0.635 2.31825,0.635 h 23.43452 c 2.76174,0 5.01951,0.221747 6.78341,0.67532 1.75382,0.453569 3.13468,1.169204 4.14261,2.156983 1.00795,0.987777 1.70341,2.257777 2.07637,3.830159 0.36285,1.562301 0.55435,3.48746 0.55435,5.775476 z"
       style="fill:#313130;fill-opacity:1;fill-rule:nonzero;stroke:none;stroke-width:0.26458332"
       inkscape:connector-curvature="0" />
    <path
       id="path126"
       d="m 182.49699,-28.724761 c 0,-1.44135 -0.35277,-2.38881 -1.0785,-2.872619 -0.71564,-0.473731 -1.97556,-0.715637 -3.77975,-0.715637 h -19.77573 c -1.49175,0 -2.74159,0.07056 -3.74952,0.201589 -1.00793,0.131032 -1.82435,0.433411 -2.42914,0.91722 -0.61484,0.473732 -1.04825,1.169207 -1.32037,2.066272 -0.26207,0.907142 -0.39309,2.126744 -0.39309,3.66889 v 2.318252 h 32.5261 z m -32.5261,13.234207 v 1.995712 c 0,1.330476 0.10078,2.388809 0.31244,3.185081 0.21167,0.7962681 0.60476,1.4211901 1.15914,1.8747601 0.55436,0.453573 1.30022,0.755955 2.23761,0.917223 0.92731,0.161269 2.08642,0.241904 3.46731,0.241904 h 37.23317 v 9.010954 h -37.23317 c -6.86406,0 -11.75255,-1.310317 -14.67556,-3.910793 -2.92301,-2.600479 -4.38452,-6.773333 -4.38452,-12.5185731 v -9.968492 c 0,-3.134682 0.30237,-5.775475 0.9172,-7.932459 0.61484,-2.146906 1.67318,-3.880557 3.19517,-5.180796 1.5119,-1.300236 3.51771,-2.247696 6.01739,-2.832301 2.49968,-0.584602 5.65451,-0.876903 9.48468,-0.876903 h 20.89451 c 3.07422,0 5.64446,0.292301 7.69057,0.876903 2.0461,0.584605 3.66889,1.401032 4.86833,2.429126 1.18935,1.038175 2.02594,2.288016 2.50976,3.749525 0.47373,1.461508 0.71564,3.04397 0.71564,4.747381 v 14.191748 z"
       style="fill:#313130;fill-opacity:1;fill-rule:nonzero;stroke:none;stroke-width:0.26458332"
       inkscape:connector-curvature="0" />
    <path
       id="path128"
       d="M 200.58943,1.7350801 V -23.302063 c 0,-3.245556 0.37296,-6.007303 1.11882,-8.295317 0.74589,-2.288016 1.92516,-4.152699 3.54793,-5.624287 1.6228,-1.461508 3.70922,-2.52992 6.2593,-3.225396 2.55008,-0.685397 5.6646,-1.038174 9.3335,-1.038174 h 7.73086 v 9.645951 h -7.41842 c -1.64293,0 -3.02379,0.141111 -4.1426,0.403175 -1.11882,0.262065 -2.00581,0.715635 -2.67105,1.350635 -0.66522,0.64508 -1.14903,1.521983 -1.44135,2.630715 -0.29228,1.118809 -0.43341,2.529919 -0.43341,4.233333 V 1.7350801 Z"
       style="fill:#313130;fill-opacity:1;fill-rule:nonzero;stroke:none;stroke-width:0.26458332"
       inkscape:connector-curvature="0" />
    <path
       id="path130"
       d="M -43.57309,-47.825159 H -31.4577 V -60.17238 h -12.11539 z"
       style="fill:#313130;fill-opacity:1;fill-rule:nonzero;stroke:none;stroke-width:0.26458332"
       inkscape:connector-curvature="0" />
    <path
       id="path132"
       d="M -12.6496,-90.843889 -16.88293,54.379603 -21.11627,-90.843889 Z"
       style="fill:#ec5115;fill-opacity:1;fill-rule:nonzero;stroke:none;stroke-width:0.26458332"
       inkscape:connector-curvature="0" />
    <path
       id="path134"
       d="M -1.73365,24.756353 V 8.9115881 h 0.88698 V 23.849203 h 4.46516 v 0.90715 z"
       style="fill:#313130;fill-opacity:1;fill-rule:nonzero;stroke:none;stroke-width:0.26458332"
       inkscape:connector-curvature="0" />
    <path
       id="path136"
       d="m 11.78278,17.479043 c -0.75595,-0.75595 -1.65302,-1.13896 -2.71135,-1.13896 -1.05833,0 -1.96548,0.37293 -2.70127,1.10873 -0.75595,0.75595 -1.13897,1.67317 -1.13897,2.7315 0,1.05834 0.38302,1.9554 1.13897,2.71135 0.75595,0.75596 1.65302,1.12889 2.70127,1.12889 1.06841,0 1.97556,-0.36285 2.71135,-1.10873 0.75595,-0.75595 1.12889,-1.66309 1.12889,-2.73151 0,-1.04825 -0.37294,-1.95539 -1.12889,-2.70127 z m 0.95754,7.27731 v -1.57239 c -0.96762,1.14905 -2.18722,1.72358 -3.66889,1.72358 -1.33048,0 -2.44929,-0.4435 -3.34635,-1.35064 -0.91722,-0.91722 -1.38087,-2.04611 -1.38087,-3.37659 0,-1.33047 0.45357,-2.44928 1.36071,-3.34635 0.91722,-0.91722 2.03603,-1.38087 3.36651,-1.38087 1.47159,0 2.69119,0.58461 3.66889,1.73365 v -1.59254 h 0.90714 v 9.16215 z"
       style="fill:#313130;fill-opacity:1;fill-rule:nonzero;stroke:none;stroke-width:0.26458332"
       inkscape:connector-curvature="0" />
    <path
       id="path138"
       d="m 20.8643,24.181823 c -0.5947,0.50397 -1.30024,0.75596 -2.13683,0.75596 -1.42121,0 -2.47953,-0.64508 -3.19517,-1.93524 l 0.77611,-0.46365 c 0.25199,0.45357 0.55436,0.80635 0.91723,1.05833 0.36285,0.28222 0.86683,0.42333 1.50183,0.42333 1.39094,0 2.08643,-0.5846 2.08643,-1.77396 0,-0.51405 -0.24191,-0.96763 -0.72573,-1.35064 -0.15118,-0.0907 -0.36285,-0.19151 -0.635,-0.30238 -0.27215,-0.11087 -0.61484,-0.24191 -1.00793,-0.3931 -0.74589,-0.26206 -1.28008,-0.52412 -1.60261,-0.79627 -0.47373,-0.38301 -0.70556,-0.93738 -0.70556,-1.66309 0,-0.62492 0.23183,-1.14905 0.70556,-1.60262 0.46363,-0.45357 1.05834,-0.6854 1.79412,-0.6854 1.02809,0 1.89492,0.35278 2.60048,1.06841 l -0.66524,0.57453 c -0.50398,-0.50397 -1.14906,-0.75595 -1.93524,-0.75595 -1.05834,0 -1.59253,0.47373 -1.59253,1.40103 0,0.41325 0.16126,0.75595 0.48379,1.01801 0.27215,0.21167 0.69548,0.41326 1.27,0.60477 0.50398,0.17135 0.91723,0.3427 1.23976,0.49389 0.32255,0.16126 0.57454,0.2923 0.7358,0.41325 0.635,0.49389 0.95753,1.14905 0.95753,1.97556 0,0.79626 -0.29228,1.44134 -0.8668,1.93523 z"
       style="fill:#313130;fill-opacity:1;fill-rule:nonzero;stroke:none;stroke-width:0.26458332"
       inkscape:connector-curvature="0" />
    <path
       id="path140"
       d="m 30.13731,17.075873 c -0.69548,-0.50397 -1.49175,-0.75595 -2.3989,-0.75595 -1.89492,0 -3.13467,0.93738 -3.72935,2.80206 h 7.43857 c -0.15121,-0.84667 -0.58462,-1.53206 -1.31032,-2.04611 z m -6.2593,2.90286 c 0,1.24984 0.33263,2.22754 0.99788,2.95325 0.69545,0.74587 1.65301,1.10873 2.86252,1.10873 0.62492,0 1.18936,-0.10079 1.69334,-0.30238 0.635,-0.27214 1.19943,-0.80635 1.70341,-1.62278 l 0.82651,0.37294 c -0.5846,1.09865 -1.47159,1.83444 -2.67103,2.22754 -0.45357,0.14111 -0.96763,0.22175 -1.55223,0.22175 -1.37078,0 -2.50976,-0.45358 -3.39674,-1.36072 -0.89707,-0.89706 -1.35065,-2.03603 -1.35065,-3.39675 0,-1.37079 0.44349,-2.50976 1.33048,-3.39674 0.90715,-0.89707 2.04613,-1.35064 3.41691,-1.35064 1.36073,0 2.4896,0.42334 3.37659,1.27 0.90715,0.83659 1.35064,1.93524 1.35064,3.2758 z"
       style="fill:#313130;fill-opacity:1;fill-rule:nonzero;stroke:none;stroke-width:0.26458332"
       inkscape:connector-curvature="0" />
    <path
       id="path142"
       d="m 38.90634,16.944843 c -0.24191,-0.18143 -0.49387,-0.32254 -0.75594,-0.42334 -0.26207,-0.10079 -0.5443,-0.15119 -0.84666,-0.15119 -0.25199,0 -0.48382,0.0706 -0.70557,0.23183 -0.22175,0.15119 -0.41325,0.3427 -0.57452,0.57452 -0.17134,0.23183 -0.29231,0.48381 -0.39309,0.76604 -0.0907,0.28222 -0.14113,0.5342 -0.14113,0.77611 v 6.03754 h -0.9172 v -9.16215 h 0.9172 v 1.23976 c 0.19154,-0.34269 0.4435,-0.65515 0.75597,-0.93737 0.30237,-0.28223 0.64508,-0.41326 1.01801,-0.41326 0.45358,0 0.83659,0.0504 1.1289,0.15119 0.30237,0.10079 0.635,0.28222 0.99785,0.55437 z"
       style="fill:#313130;fill-opacity:1;fill-rule:nonzero;stroke:none;stroke-width:0.26458332"
       inkscape:connector-curvature="0" />
    <path
       id="path144"
       d="m 45.14548,24.937783 c -1.36072,0 -2.49968,-0.45358 -3.39674,-1.36072 -0.90716,-0.89706 -1.36073,-2.03603 -1.36073,-3.39675 0,-1.36071 0.45357,-2.4896 1.36073,-3.39674 0.89706,-0.89707 2.03602,-1.35064 3.39674,-1.35064 1.1692,0 2.09651,0.26207 2.79199,0.79627 v 1.08858 l -0.57454,-0.37294 -0.62492,-0.33262 c -0.56444,-0.19151 -1.09866,-0.2923 -1.59253,-0.2923 -1.13898,0 -2.06626,0.35278 -2.78191,1.06841 -0.72572,0.72571 -1.08857,1.65302 -1.08857,2.79198 0,1.12889 0.36285,2.05619 1.08857,2.78191 0.72573,0.72571 1.65301,1.07849 2.78191,1.07849 1.05834,0 1.9957,-0.35278 2.79199,-1.05833 v 1.12889 c -0.8265,0.54428 -1.7639,0.82651 -2.79199,0.82651 z"
       style="fill:#313130;fill-opacity:1;fill-rule:nonzero;stroke:none;stroke-width:0.26458332"
       inkscape:connector-curvature="0" />
    <path
       id="path146"
       d="m 55.1039,23.960083 c -0.60476,0.64507 -1.45143,0.9777 -2.55008,0.9777 -1.0785,0 -1.91508,-0.32254 -2.50976,-0.95754 -0.59471,-0.635 -0.88699,-1.52199 -0.88699,-2.66096 v -5.72508 h 0.90715 v 5.72508 c 0,0.86683 0.20158,1.54215 0.5846,2.01587 0.39309,0.47374 1.02809,0.70556 1.905,0.70556 1.70341,0 2.55008,-0.90714 2.55008,-2.72143 v -5.72508 h 0.88699 v 5.72508 c 0,1.11881 -0.29232,2.0058 -0.88699,2.6408 z"
       style="fill:#313130;fill-opacity:1;fill-rule:nonzero;stroke:none;stroke-width:0.26458332"
       inkscape:connector-curvature="0" />
    <path
       id="path148"
       d="m 60.16374,16.501353 v 8.255 h -0.90716 v -8.255 h -1.23975 v -0.90715 h 1.23975 v -4.02166 h 0.90716 v 4.02166 h 2.13682 v 0.90715 z"
       style="fill:#313130;fill-opacity:1;fill-rule:nonzero;stroke:none;stroke-width:0.26458332"
       inkscape:connector-curvature="0" />
    <path
       id="path150"
       d="m 76.1496,24.625313 c -0.57452,0.20159 -1.25992,0.31247 -2.04611,0.31247 -2.42914,0 -3.98134,-1.14905 -4.67682,-3.44715 l 0.90715,-0.31246 c 0.51403,1.89492 1.77395,2.84238 3.76967,2.84238 1.13898,0 2.03602,-0.28222 2.69119,-0.83659 0.66524,-0.5846 0.99787,-1.42118 0.99787,-2.52992 0,-1.05833 -0.39312,-1.92515 -1.1793,-2.62063 -0.21167,-0.19151 -0.52411,-0.41326 -0.95753,-0.64508 -0.42333,-0.2419 -0.96763,-0.50397 -1.64295,-0.79627 -1.24984,-0.56444 -2.10659,-1.05833 -2.57022,-1.47159 -0.76605,-0.66523 -1.15914,-1.54214 -1.15914,-2.64079 0,-1.08857 0.39309,-1.97556 1.17928,-2.6407899 0.77613,-0.67532 1.71349,-1.01802 2.84239,-1.01802 1.86468,0 3.18508,0.69548 3.9511,2.0864299 l -0.86683,0.37294 c -0.29228,-0.48381 -0.64505,-0.84667 -1.06838,-1.08858 -0.51406,-0.3225399 -1.18939,-0.4838099 -2.01589,-0.4838099 -0.87691,0 -1.59253,0.24191 -2.17715,0.7357999 -0.61484,0.51405 -0.92729,1.19944 -0.92729,2.03603 0,0.75595 0.32253,1.41111 0.97769,1.97556 0.36285,0.30238 1.10874,0.69547 2.21747,1.19944 0.69546,0.31246 1.29017,0.61484 1.79412,0.91722 0.50398,0.31246 0.90715,0.61484 1.21959,0.9273 0.86683,0.84667 1.29017,1.89492 1.29017,3.15484 0,2.0058 -0.84667,3.33627 -2.55008,3.97127 z"
       style="fill:#313130;fill-opacity:1;fill-rule:nonzero;stroke:none;stroke-width:0.26458332"
       inkscape:connector-curvature="0" />
    <path
       id="path152"
       d="m 87.4889,17.075873 c -0.69549,-0.50397 -1.49175,-0.75595 -2.3989,-0.75595 -1.89492,0 -3.13468,0.93738 -3.72936,2.80206 h 7.43858 c -0.15121,-0.84667 -0.58462,-1.53206 -1.31032,-2.04611 z m -6.2593,2.90286 c 0,1.24984 0.33263,2.22754 0.99787,2.95325 0.69546,0.74587 1.65301,1.10873 2.86253,1.10873 0.62492,0 1.18935,-0.10079 1.69333,-0.30238 0.635,-0.27214 1.19944,-0.80635 1.70342,-1.62278 l 0.8265,0.37294 c -0.5846,1.09865 -1.47158,1.83444 -2.67102,2.22754 -0.45358,0.14111 -0.96763,0.22175 -1.55223,0.22175 -1.37078,0 -2.50976,-0.45358 -3.39675,-1.36072 -0.89707,-0.89706 -1.35062,-2.03603 -1.35062,-3.39675 0,-1.37079 0.44347,-2.50976 1.33046,-3.39674 0.90715,-0.89707 2.04613,-1.35064 3.41691,-1.35064 1.36072,0 2.4896,0.42334 3.37658,1.27 0.90716,0.83659 1.35065,1.93524 1.35065,3.2758 z"
       style="fill:#313130;fill-opacity:1;fill-rule:nonzero;stroke:none;stroke-width:0.26458332"
       inkscape:connector-curvature="0" />
    <path
       id="path154"
       d="m 96.25793,16.944843 c -0.24191,-0.18143 -0.49387,-0.32254 -0.75594,-0.42334 -0.26207,-0.10079 -0.5443,-0.15119 -0.84667,-0.15119 -0.25199,0 -0.48382,0.0706 -0.70556,0.23183 -0.22175,0.15119 -0.41326,0.3427 -0.57452,0.57452 -0.17134,0.23183 -0.29231,0.48381 -0.39309,0.76604 -0.0907,0.28222 -0.14113,0.5342 -0.14113,0.77611 v 6.03754 H 91.9339 v -9.16215 h 0.90712 v 1.23976 c 0.19153,-0.34269 0.44349,-0.65515 0.75597,-0.93737 0.30236,-0.28223 0.64508,-0.41326 1.01801,-0.41326 0.45357,0 0.83658,0.0504 1.1289,0.15119 0.30236,0.10079 0.635,0.28222 0.99785,0.55437 z"
       style="fill:#313130;fill-opacity:1;fill-rule:nonzero;stroke:none;stroke-width:0.26458332"
       inkscape:connector-curvature="0" />
    <path
       id="path156"
       d="m 102.27532,25.159523 -4.33414,-9.56532 h 0.97772 l 3.32618,7.29746 3.35642,-7.29746 h 1.01801 z"
       style="fill:#313130;fill-opacity:1;fill-rule:nonzero;stroke:none;stroke-width:0.26458332"
       inkscape:connector-curvature="0" />
    <path
       id="path158"
       d="m 108.61524,24.756353 v -9.16215 h 0.91723 v 9.16215 z m 0.47374,-10.81516 c -0.17135,0 -0.33264,-0.0605 -0.51406,-0.19151 -0.13102,-0.14111 -0.21167,-0.31246 -0.22175,-0.53421 0,-0.40317 0.24191,-0.64508 0.73581,-0.73579 0.36285,0 0.61484,0.24191 0.7257,0.73579 0,0.48381 -0.24191,0.72572 -0.7257,0.72572 z"
       style="fill:#313130;fill-opacity:1;fill-rule:nonzero;stroke:none;stroke-width:0.26458332"
       inkscape:connector-curvature="0" />
    <path
       id="path160"
       d="m 116.88032,24.937783 c -1.37081,0 -2.49968,-0.45358 -3.39675,-1.36072 -0.90715,-0.89706 -1.36072,-2.03603 -1.36072,-3.39675 0,-1.36071 0.45357,-2.4896 1.36072,-3.39674 0.89707,-0.89707 2.02594,-1.35064 3.39675,-1.35064 1.16919,0 2.09651,0.26207 2.79199,0.79627 v 1.08858 l -0.57454,-0.37294 -0.62492,-0.33262 c -0.56444,-0.19151 -1.09863,-0.2923 -1.59253,-0.2923 -1.14906,0 -2.06626,0.35278 -2.78191,1.06841 -0.72572,0.72571 -1.08857,1.65302 -1.08857,2.79198 0,1.12889 0.36285,2.05619 1.08857,2.78191 0.72573,0.72571 1.65301,1.07849 2.78191,1.07849 1.05833,0 1.9957,-0.35278 2.79199,-1.05833 v 1.12889 c -0.82651,0.54428 -1.7639,0.82651 -2.79199,0.82651 z"
       style="fill:#313130;fill-opacity:1;fill-rule:nonzero;stroke:none;stroke-width:0.26458332"
       inkscape:connector-curvature="0" />
    <path
       id="path162"
       d="m 127.39309,17.075873 c -0.69546,-0.50397 -1.49175,-0.75595 -2.39887,-0.75595 -1.89492,0 -3.13471,0.93738 -3.7193,2.80206 h 7.42849 c -0.15118,-0.84667 -0.58459,-1.53206 -1.31032,-2.04611 z m -6.25927,2.90286 c 0,1.24984 0.3326,2.22754 0.99785,2.95325 0.69548,0.74587 1.65301,1.10873 2.86255,1.10873 0.62492,0 1.18935,-0.10079 1.69333,-0.30238 0.635,-0.27214 1.19944,-0.80635 1.70342,-1.62278 l 0.8265,0.37294 c -0.57454,1.09865 -1.4615,1.83444 -2.66097,2.22754 -0.46365,0.14111 -0.97768,0.22175 -1.56228,0.22175 -1.37081,0 -2.49971,-0.45358 -3.38667,-1.36072 -0.90715,-0.89706 -1.36072,-2.03603 -1.36072,-3.39675 0,-1.37079 0.44349,-2.50976 1.33048,-3.39674 0.90712,-0.89707 2.0461,-1.35064 3.41691,-1.35064 1.3607,0 2.4896,0.42334 3.37658,1.27 0.90713,0.83659 1.35062,1.93524 1.35062,3.2758 z"
       style="fill:#313130;fill-opacity:1;fill-rule:nonzero;stroke:none;stroke-width:0.26458332"
       inkscape:connector-curvature="0" />
  </g>
</svg>
